<mxfile host="app.diagrams.net" agent="Mozilla/5.0 (Windows NT 10.0; Win64; x64) AppleWebKit/537.36 (KHTML, like Gecko) Chrome/133.0.0.0 Safari/537.36" version="26.1.0">
  <diagram name="PÃ¡gina-1" id="AYU9cBrG6ZhrzKuEIXRF">
    <mxGraphModel dx="1235" dy="726" grid="1" gridSize="10" guides="1" tooltips="1" connect="1" arrows="1" fold="1" page="1" pageScale="1" pageWidth="827" pageHeight="1169" math="0" shadow="0">
      <root>
        <mxCell id="0" />
        <mxCell id="1" parent="0" />
        <mxCell id="782BeSMENEGIO7f0CFkY-1" value="Inicio" style="strokeWidth=2;html=1;shape=mxgraph.flowchart.start_1;whiteSpace=wrap;fillColor=#d5e8d4;strokeColor=#82b366;" vertex="1" parent="1">
          <mxGeometry x="370" y="20" width="100" height="60" as="geometry" />
        </mxCell>
        <mxCell id="782BeSMENEGIO7f0CFkY-2" value="Fim" style="strokeWidth=2;html=1;shape=mxgraph.flowchart.start_1;whiteSpace=wrap;fillColor=#d5e8d4;strokeColor=#82b366;" vertex="1" parent="1">
          <mxGeometry x="363" y="670" width="100" height="60" as="geometry" />
        </mxCell>
        <mxCell id="782BeSMENEGIO7f0CFkY-3" value="NOTA1" style="html=1;strokeWidth=2;shape=manualInput;whiteSpace=wrap;rounded=1;size=26;arcSize=11;fillColor=#dae8fc;strokeColor=#6c8ebf;" vertex="1" parent="1">
          <mxGeometry x="370" y="100" width="100" height="60" as="geometry" />
        </mxCell>
        <mxCell id="782BeSMENEGIO7f0CFkY-12" style="edgeStyle=orthogonalEdgeStyle;rounded=0;orthogonalLoop=1;jettySize=auto;html=1;exitX=0.5;exitY=1;exitDx=0;exitDy=0;entryX=0.5;entryY=0;entryDx=0;entryDy=0;" edge="1" parent="1" source="782BeSMENEGIO7f0CFkY-4" target="782BeSMENEGIO7f0CFkY-5">
          <mxGeometry relative="1" as="geometry" />
        </mxCell>
        <mxCell id="782BeSMENEGIO7f0CFkY-4" value="NOTA2" style="html=1;strokeWidth=2;shape=manualInput;whiteSpace=wrap;rounded=1;size=26;arcSize=11;fillColor=#dae8fc;strokeColor=#6c8ebf;" vertex="1" parent="1">
          <mxGeometry x="370" y="180" width="100" height="60" as="geometry" />
        </mxCell>
        <mxCell id="782BeSMENEGIO7f0CFkY-5" value="MEDIA = (NOTA1 + NOTA2) / 2" style="rounded=1;whiteSpace=wrap;html=1;absoluteArcSize=1;arcSize=14;strokeWidth=2;fillColor=#f5f5f5;fontColor=#333333;strokeColor=#666666;" vertex="1" parent="1">
          <mxGeometry x="330" y="270" width="180" height="50" as="geometry" />
        </mxCell>
        <mxCell id="782BeSMENEGIO7f0CFkY-6" value="MEDIA &amp;gt;= 7" style="strokeWidth=2;html=1;shape=mxgraph.flowchart.decision;whiteSpace=wrap;fillColor=#ffe6cc;strokeColor=#d79b00;" vertex="1" parent="1">
          <mxGeometry x="370" y="360" width="100" height="100" as="geometry" />
        </mxCell>
        <mxCell id="782BeSMENEGIO7f0CFkY-7" value="APROVADO" style="strokeWidth=2;html=1;shape=mxgraph.flowchart.display;whiteSpace=wrap;fillColor=#e1d5e7;strokeColor=#9673a6;" vertex="1" parent="1">
          <mxGeometry x="500" y="460" width="100" height="60" as="geometry" />
        </mxCell>
        <mxCell id="782BeSMENEGIO7f0CFkY-8" value="REPROVADO" style="strokeWidth=2;html=1;shape=mxgraph.flowchart.display;whiteSpace=wrap;rotation=0;fillColor=#e1d5e7;strokeColor=#9673a6;" vertex="1" parent="1">
          <mxGeometry x="240" y="460" width="100" height="60" as="geometry" />
        </mxCell>
        <mxCell id="782BeSMENEGIO7f0CFkY-25" style="edgeStyle=orthogonalEdgeStyle;rounded=0;orthogonalLoop=1;jettySize=auto;html=1;" edge="1" parent="1" source="782BeSMENEGIO7f0CFkY-9" target="782BeSMENEGIO7f0CFkY-2">
          <mxGeometry relative="1" as="geometry" />
        </mxCell>
        <mxCell id="782BeSMENEGIO7f0CFkY-9" value="" style="strokeWidth=2;html=1;shape=mxgraph.flowchart.start_2;whiteSpace=wrap;fillColor=#f5f5f5;gradientColor=#b3b3b3;strokeColor=#666666;" vertex="1" parent="1">
          <mxGeometry x="396" y="585" width="34" height="40" as="geometry" />
        </mxCell>
        <mxCell id="782BeSMENEGIO7f0CFkY-10" style="edgeStyle=orthogonalEdgeStyle;rounded=0;orthogonalLoop=1;jettySize=auto;html=1;exitX=0.5;exitY=1;exitDx=0;exitDy=0;exitPerimeter=0;entryX=0.477;entryY=0.222;entryDx=0;entryDy=0;entryPerimeter=0;" edge="1" parent="1" source="782BeSMENEGIO7f0CFkY-1" target="782BeSMENEGIO7f0CFkY-3">
          <mxGeometry relative="1" as="geometry" />
        </mxCell>
        <mxCell id="782BeSMENEGIO7f0CFkY-11" style="edgeStyle=orthogonalEdgeStyle;rounded=0;orthogonalLoop=1;jettySize=auto;html=1;exitX=0.5;exitY=1;exitDx=0;exitDy=0;entryX=0.496;entryY=0.222;entryDx=0;entryDy=0;entryPerimeter=0;" edge="1" parent="1" source="782BeSMENEGIO7f0CFkY-3" target="782BeSMENEGIO7f0CFkY-4">
          <mxGeometry relative="1" as="geometry" />
        </mxCell>
        <mxCell id="782BeSMENEGIO7f0CFkY-13" style="edgeStyle=orthogonalEdgeStyle;rounded=0;orthogonalLoop=1;jettySize=auto;html=1;exitX=0.5;exitY=1;exitDx=0;exitDy=0;entryX=0.5;entryY=0;entryDx=0;entryDy=0;entryPerimeter=0;" edge="1" parent="1" source="782BeSMENEGIO7f0CFkY-5" target="782BeSMENEGIO7f0CFkY-6">
          <mxGeometry relative="1" as="geometry" />
        </mxCell>
        <mxCell id="782BeSMENEGIO7f0CFkY-14" style="edgeStyle=orthogonalEdgeStyle;rounded=0;orthogonalLoop=1;jettySize=auto;html=1;exitX=1;exitY=0.5;exitDx=0;exitDy=0;exitPerimeter=0;entryX=0.589;entryY=-0.006;entryDx=0;entryDy=0;entryPerimeter=0;" edge="1" parent="1" source="782BeSMENEGIO7f0CFkY-6" target="782BeSMENEGIO7f0CFkY-7">
          <mxGeometry relative="1" as="geometry" />
        </mxCell>
        <mxCell id="782BeSMENEGIO7f0CFkY-15" value="S" style="edgeLabel;html=1;align=center;verticalAlign=middle;resizable=0;points=[];" vertex="1" connectable="0" parent="782BeSMENEGIO7f0CFkY-14">
          <mxGeometry x="0.2459" relative="1" as="geometry">
            <mxPoint as="offset" />
          </mxGeometry>
        </mxCell>
        <mxCell id="782BeSMENEGIO7f0CFkY-16" style="edgeStyle=orthogonalEdgeStyle;rounded=0;orthogonalLoop=1;jettySize=auto;html=1;entryX=0.422;entryY=-0.006;entryDx=0;entryDy=0;entryPerimeter=0;" edge="1" parent="1" source="782BeSMENEGIO7f0CFkY-6" target="782BeSMENEGIO7f0CFkY-8">
          <mxGeometry relative="1" as="geometry" />
        </mxCell>
        <mxCell id="782BeSMENEGIO7f0CFkY-17" value="N" style="edgeLabel;html=1;align=center;verticalAlign=middle;resizable=0;points=[];" vertex="1" connectable="0" parent="782BeSMENEGIO7f0CFkY-16">
          <mxGeometry x="0.2093" relative="1" as="geometry">
            <mxPoint as="offset" />
          </mxGeometry>
        </mxCell>
        <mxCell id="782BeSMENEGIO7f0CFkY-23" style="edgeStyle=orthogonalEdgeStyle;rounded=0;orthogonalLoop=1;jettySize=auto;html=1;entryX=0;entryY=0.5;entryDx=0;entryDy=0;entryPerimeter=0;" edge="1" parent="1" source="782BeSMENEGIO7f0CFkY-8" target="782BeSMENEGIO7f0CFkY-9">
          <mxGeometry relative="1" as="geometry" />
        </mxCell>
        <mxCell id="782BeSMENEGIO7f0CFkY-24" style="edgeStyle=orthogonalEdgeStyle;rounded=0;orthogonalLoop=1;jettySize=auto;html=1;entryX=1;entryY=0.5;entryDx=0;entryDy=0;entryPerimeter=0;" edge="1" parent="1" source="782BeSMENEGIO7f0CFkY-7" target="782BeSMENEGIO7f0CFkY-9">
          <mxGeometry relative="1" as="geometry" />
        </mxCell>
      </root>
    </mxGraphModel>
  </diagram>
</mxfile>
